Coordinates
version=1
nRows=16
nColumns=30
inDegrees=yes

Units are S.I. units (second, meters, Newtons, ...)
Angles are in degrees.

endheader
time	floatyaw	floatroll	floatpitch	floatx	floaty	floatz	pro_sup_l	deviation_l	flexion_l	cmc_flexion_l	cmc_abduction_l	mp_flexion_l	ip_flexion_l	2mcp_flexion_l	2mcp_abduction_l	2pm_flexion_l	2md_flexion_l	3mcp_flexion_l	3mcp_abduction_l	3pm_flexion_l	3md_flexion_l	4mcp_flexion_l	4mcp_abduction_l	4pm_flexion_l	4md_flexion_l	5mcp_flexion_l	5mcp_abduction_l	5pm_flexion_l	5md_flexion_l
-0.995000	-4.367428	-0.612882	99.545687	-0.102583	-0.193633	-0.016646	88.764373	-0.288717	-0.352885	15.184701	5.986614	-22.340592	-35.119517	38.252777	8.226868	47.658067	32.887216	22.510287	4.762962	49.216256	32.709823	11.576223	-4.728098	63.491856	42.602032	6.477496	-8.313235	62.250885	41.690110
-0.985000	-4.367428	-0.612882	99.545687	-0.102575	-0.193627	-0.016617	88.760454	-0.311962	-0.359718	15.169552	6.006485	-22.345412	-35.124095	38.264112	8.222785	47.663250	32.890976	22.532234	4.758645	49.227701	32.707059	11.600428	-4.726106	63.494058	42.601116	6.495040	-8.297364	62.230390	41.674936
-0.975000	-4.367428	-0.612882	99.545687	-0.102568	-0.193619	-0.016589	88.756389	-0.333714	-0.367048	15.149195	6.035454	-22.354698	-35.130876	38.278677	8.215266	47.658650	32.889784	22.558106	4.753010	49.230031	32.697923	11.625023	-4.719954	63.491170	42.597167	6.519532	-8.287626	62.221541	41.660064
-0.965000	-4.367428	-0.612882	99.545687	-0.102562	-0.193612	-0.016567	88.756233	-0.348761	-0.376035	15.126288	6.067529	-22.367669	-35.139799	38.293375	8.206362	47.647091	32.885061	22.586032	4.746734	49.224829	32.683122	11.650364	-4.711697	63.484935	42.590436	6.552878	-8.284941	62.224575	41.645834
-0.955000	-4.367428	-0.612882	99.545687	-0.102555	-0.193608	-0.016551	88.762142	-0.354333	-0.387687	15.104180	6.096061	-22.381566	-35.149285	38.304923	8.198685	47.634727	32.880188	22.613668	4.740658	49.216220	32.665791	11.676258	-4.704211	63.477457	42.581780	6.591208	-8.286503	62.237166	41.633680
-0.945000	-4.367428	-0.612882	99.545687	-0.102547	-0.193610	-0.016542	88.773723	-0.350749	-0.402557	15.085690	6.114556	-22.392644	-35.156525	38.311170	8.193902	47.628986	32.879474	22.638816	4.735855	49.209220	32.650461	11.701562	-4.700000	63.470197	42.572379	6.627126	-8.287215	62.255825	41.626136
-0.935000	-4.367428	-0.612882	99.545687	-0.102536	-0.193618	-0.016537	88.788646	-0.340392	-0.420651	15.071888	6.118234	-22.397907	-35.158665	38.312166	8.191937	47.635611	32.886307	22.660198	4.733290	49.207756	32.641199	11.724610	-4.700338	63.464030	42.563615	6.654052	-8.282300	62.278155	41.626150
-0.925000	-4.367428	-0.612882	99.545687	-0.102522	-0.193633	-0.016535	88.803849	-0.326188	-0.441408	15.061558	6.106235	-22.396652	-35.154325	38.310302	8.191622	47.656538	32.901636	22.677658	4.733307	49.213496	32.640199	11.744125	-4.705207	63.460384	42.557225	6.669946	-8.269811	62.304438	41.635989
-0.915000	-4.367428	-0.612882	99.545687	-0.102507	-0.193654	-0.016535	88.816512	-0.310864	-0.463615	15.051775	6.083208	-22.390912	-35.144599	38.309349	8.192151	47.689652	32.923612	22.691559	4.735501	49.225835	32.647461	11.759885	-4.713802	63.462076	42.555292	6.678309	-8.251793	62.337078	41.656037
-0.905000	-4.367428	-0.612882	99.545687	-0.102490	-0.193677	-0.016536	88.824630	-0.297073	-0.485372	15.039385	6.058594	-22.384560	-35.132962	38.312855	8.193878	47.730115	32.948402	22.702028	4.739132	49.242655	32.661247	11.772683	-4.724968	63.472534	42.559624	6.686088	-8.233390	62.377881	41.683876
-0.895000	-4.367428	-0.612882	99.545687	-0.102470	-0.193700	-0.016536	88.827584	-0.287414	-0.504471	15.022626	6.042985	-22.381597	-35.124029	38.322679	8.197639	47.772216	32.971633	22.708847	4.743632	49.261367	32.678863	11.783799	-4.737287	63.493652	42.570781	6.699854	-8.220197	62.424963	41.714284
-0.885000	-4.367428	-0.612882	99.545687	-0.102451	-0.193718	-0.016532	88.826779	-0.283640	-0.519275	15.002019	6.043040	-22.384477	-35.121642	38.338155	8.203279	47.810906	32.989874	22.711954	4.748651	49.280023	32.697677	11.794449	-4.749029	63.524119	42.587600	6.722650	-8.215247	62.471703	41.740626
-0.875000	-4.367428	-0.612882	99.545687	-0.102432	-0.193731	-0.016520	88.825609	-0.285560	-0.529575	14.980012	6.057946	-22.393190	-35.127119	38.356073	8.208923	47.842753	33.001724	22.711800	4.753687	49.298125	32.716174	11.805287	-4.758284	63.559697	42.607763	6.753612	-8.217636	62.508794	41.757224
-0.865000	-4.367428	-0.612882	99.545687	-0.102416	-0.193737	-0.016501	88.828126	-0.290731	-0.536645	14.959612	6.079711	-22.405473	-35.138565	38.371580	8.211804	47.866361	33.008136	22.709134	4.757809	49.316454	32.734357	11.815859	-4.763344	63.595120	42.628934	6.790519	-8.223785	62.528237	41.761370
-0.855000	-4.367428	-0.612882	99.545687	-0.102402	-0.193738	-0.016476	88.837013	-0.295396	-0.542397	14.942923	6.097169	-22.418001	-35.151727	38.380016	8.210043	47.882323	33.011808	22.704683	4.759870	49.335685	32.752911	11.824371	-4.763198	63.625981	42.649469	6.833015	-8.230247	62.526931	41.753836
-0.845000	-4.367428	-0.612882	99.545687	-0.102391	-0.193736	-0.016452	88.852295	-0.296119	-0.548414	14.930562	6.101334	-22.427936	-35.162061	38.379017	8.203963	47.892888	33.015977	22.699296	4.759107	49.354767	32.771642	11.828426	-4.757939	63.649493	42.668252	6.883612	-8.235776	62.507992	41.737860
